<?xml version="1.0" encoding="utf-8"?>
<!-- Generator: Adobe Illustrator 22.0.0, SVG Export Plug-In . SVG Version: 6.00 Build 0)  -->
<svg version="1.1" id="图层_1" xmlns="http://www.w3.org/2000/svg" xmlns:xlink="http://www.w3.org/1999/xlink" x="0px" y="0px"
	 viewBox="0 0 74 74" style="enable-background:new 0 0 74 74;" xml:space="preserve">
<style type="text/css">
	.st0{opacity:0.1;fill:#1B63CC;}
	.st1{opacity:0.4;fill:#008BEA;}
	.st2{fill:#1B63CC;}
	.st3{opacity:0.51;fill:#FFFFFF;}
	.st4{fill:none;stroke:#1B63CC;stroke-width:45;stroke-linecap:round;stroke-miterlimit:10;}
	.st5{opacity:0.6;fill:none;stroke:#1B63CC;stroke-width:45;stroke-miterlimit:10;}
	.st6{opacity:0.1;fill:#E2A305;}
	.st7{opacity:0.4;fill:#E2A305;}
	.st8{fill:#E2A305;}
	.st9{fill:none;stroke:#E2A305;stroke-width:45;stroke-linecap:round;stroke-miterlimit:10;}
	.st10{opacity:0.6;fill:none;stroke:#E2A305;stroke-width:45;stroke-miterlimit:10;}
	.st11{opacity:0.1;fill:#F42500;}
	.st12{opacity:0.4;fill:#F42500;}
	.st13{fill:#F42500;}
	.st14{fill:none;stroke:#F42500;stroke-width:45;stroke-linecap:round;stroke-miterlimit:10;}
	.st15{opacity:0.6;fill:none;stroke:#F42500;stroke-width:45;stroke-miterlimit:10;}
	.st16{fill:#FD5435;}
	.st17{opacity:0.32;fill:#FFFFFF;}
	.st18{opacity:0.13;fill:#FFFFFF;}
</style>
<g>
	<circle class="st13" cx="38.2" cy="37.5" r="32.1"/>
	<circle class="st16" cx="37.7" cy="36.3" r="30.5"/>
	<ellipse class="st3" cx="61.4" cy="30" rx="3.3" ry="4.6"/>
	<g>
		<path class="st17" d="M54.1,18.8c-0.6,1.1-3.1,0.9-5.7-0.4c-2.6-1.3-4.1-3.3-3.6-4.4c0.6-1.1,3.1-0.9,5.7,0.4
			C53.1,15.7,54.6,17.7,54.1,18.8z"/>
		<path class="st18" d="M57.5,20.6c-1,1.9-5.4,1.6-9.8-0.7c-4.4-2.3-7.2-5.8-6.2-7.7c1-1.9,5.4-1.6,9.8,0.7
			C55.7,15.2,58.5,18.7,57.5,20.6z"/>
	</g>
</g>
</svg>
