<?xml version="1.0" encoding="utf-8"?>
<!-- Generator: Adobe Illustrator 22.0.0, SVG Export Plug-In . SVG Version: 6.00 Build 0)  -->
<svg version="1.1" id="图层_1" xmlns="http://www.w3.org/2000/svg" xmlns:xlink="http://www.w3.org/1999/xlink" x="0px" y="0px"
	 viewBox="0 0 1190.6 1190.6" style="enable-background:new 0 0 1190.6 1190.6;" xml:space="preserve">
<style type="text/css">
	.st0{fill:none;stroke:#4F3625;stroke-width:45;stroke-linecap:round;stroke-linejoin:round;stroke-miterlimit:10;}
	.st1{fill:#4F3625;}
	.st2{fill:#AC8D64;}
	.st3{fill:none;stroke:#4F3625;stroke-width:37.6522;stroke-linecap:round;stroke-linejoin:round;stroke-miterlimit:10;}
	.st4{fill:none;stroke:#4F3625;stroke-width:45;stroke-miterlimit:10;}
	.st5{fill:none;stroke:#4F3625;stroke-width:37.652;stroke-linecap:round;stroke-linejoin:round;stroke-miterlimit:10;}
	.st6{fill:#FFDB01;}
	.st7{fill:#FFB701;}
</style>
<path class="st6" d="M856.6,430c0-139.9-113.4-253.3-253.3-253.3S350.1,290.2,350.1,430c0,91,60.6,166.9,75.1,192.9
	c14.6,26,25.7,67,27.8,92c6.6,81.8,67.3,150.4,150.4,150.4c83,0,138.5-67.3,150.4-150.4c3.5-24.9,10.6-66,27.8-92
	C798.2,597.6,856.6,521,856.6,430z"/>
<path class="st7" d="M677.4,195.4c18.8,0,37.3,1.8,55.1,5.2c-37.8-22.5-82-35.4-129.2-35.4c-139.9,0-253.3,113.4-253.3,253.3
	c0,54.1,21.5,103,41.9,139.1c-5.3-22-8.1-45-8.1-68.6C383.9,326.8,515.3,195.4,677.4,195.4z"/>
<path class="st0" d="M393.1,254.3c-37.5,46.4-60,105.4-60,169.7c0,97,64.6,178,80.1,205.8c15.5,27.8,27.4,71.4,29.6,98.1
	c3.9,47.7,25,91.2,57.8,120.9"/>
<path class="st1" d="M689.8,1021c5.7,28-27.8,58.4-74.8,68c-47,9.6-89.7-5.3-95.5-33.2c-5.7-28,24.7-26.5,71.7-36.1
	C638.2,1010,684.1,993,689.8,1021z"/>
<path class="st0" d="M709.8,846.5c28.7-29.2,47.4-73.2,53.9-118.6c3.8-26.5,11.3-70.4,29.6-98.1c17.9-27.1,80.1-108.8,80.1-205.8
	c0-149.2-120.9-270.1-270.1-270.1c-38.8,0-75.8,8.2-109.1,22.9"/>
<path class="st2" d="M704,914.9c0,0,10.9,104.5-85.3,106.2c-96.2,1.8-141.7-45.3-132.3-64.1s11.4-26.3,11.4-26.3
	s-42.7-23.2-19.2-51.8c23.5-28.6,37.6-41.1,37.6-41.1s40.9,44.2,87.1,27.6c46.2-16.6,98.4-44.8,98.4-44.8S753.7,879.1,704,914.9z"/>
<path class="st3" d="M732.3,838.2c8.6,42-39.4,78.1-112.2,90.3c-71,11.9-134.6-2-143.2-44"/>
<path class="st4" d="M509.3,825c0,0-29.4,14.9-30.7,53.9c-0.9,28,19.2,51.8,19.2,51.8s-15.3,17.1-8.9,45.3
	c8.6,37.8,65.9,58.2,129.8,45.2c63.9-13.1,99.4-38.4,97.9-77.2c-0.6-16.9-12.6-29-12.6-29s24-19.1,24-54.2
	c0-30.5-26.3-40.1-26.3-40.1"/>
<path class="st3" d="M442.9,701.4c7,87.2,71.8,160.5,160.4,160.5c88.6,0,147.8-71.8,160.4-160.5"/>
<polyline class="st5" points="646.4,645.3 646.4,578.9 709.9,438.8 496.8,438.8 561.7,578.9 561.7,851.9 "/>
<line class="st5" x1="646.4" y1="851.9" x2="646.4" y2="729.8"/>
<line class="st3" x1="184.4" y1="447.4" x2="96.1" y2="447.4"/>
<line class="st3" x1="1103.9" y1="447.4" x2="1015.6" y2="447.4"/>
<line class="st3" x1="306.1" y1="153.5" x2="243.7" y2="91.1"/>
<line class="st3" x1="956.3" y1="803.8" x2="893.9" y2="741.3"/>
<line class="st3" x1="893.9" y1="153.5" x2="956.3" y2="91.1"/>
<line class="st3" x1="243.7" y1="803.8" x2="306.1" y2="741.3"/>
</svg>
