<?xml version="1.0" encoding="utf-8"?>
<!-- Generator: Adobe Illustrator 22.0.0, SVG Export Plug-In . SVG Version: 6.00 Build 0)  -->
<svg version="1.1" id="图层_1" xmlns="http://www.w3.org/2000/svg" xmlns:xlink="http://www.w3.org/1999/xlink" x="0px" y="0px"
	 viewBox="0 0 640 640" style="enable-background:new 0 0 640 640;" xml:space="preserve">
<style type="text/css">
	.st0{opacity:0.1;fill:#1B63CC;}
	.st1{opacity:0.4;fill:#008BEA;}
	.st2{fill:#1B63CC;}
	.st3{opacity:0.51;fill:#FFFFFF;}
	.st4{fill:none;stroke:#1B63CC;stroke-width:45;stroke-linecap:round;stroke-miterlimit:10;}
	.st5{opacity:0.6;fill:none;stroke:#1B63CC;stroke-width:45;stroke-miterlimit:10;}
	.st6{opacity:0.1;fill:#E2A305;}
	.st7{opacity:0.4;fill:#E2A305;}
	.st8{fill:#E2A305;}
	.st9{fill:none;stroke:#E2A305;stroke-width:45;stroke-linecap:round;stroke-miterlimit:10;}
	.st10{opacity:0.6;fill:none;stroke:#E2A305;stroke-width:45;stroke-miterlimit:10;}
	.st11{opacity:0.1;fill:#F42500;}
	.st12{opacity:0.4;fill:#F42500;}
	.st13{fill:#F42500;}
	.st14{fill:none;stroke:#F42500;stroke-width:45;stroke-linecap:round;stroke-miterlimit:10;}
	.st15{opacity:0.6;fill:none;stroke:#F42500;stroke-width:45;stroke-miterlimit:10;}
	.st16{fill:#FD5435;}
	.st17{opacity:0.32;fill:#FFFFFF;}
	.st18{opacity:0.13;fill:#FFFFFF;}
</style>
<g>
	<path class="st0" d="M574,206.7l-18.5,11.8c0,5.5-14.8,9-41.1,20.5l-71.5,18.9c-20.2,2.9-85.6,7.8-93.2,8.9l-103-2.7l-56.8-8.1
		c0,0-40-9-40-9c-29-9.3-47.2-16.3-56.2-22.1c-7.4-4.7-16.3-6.7-25.1-5.5h0c0,24.8-6.6,32.5,16,46.4l54.3,276.3l133.6,23.3
		l238.7-18.1L560,264.2C581.4,250.4,574,230.6,574,206.7z"/>
	<path class="st1" d="M219.2,535.6l219.7,14.1c0,0,95.2-17.9,105.6-103.7S546.3,504.5,219.2,535.6z"/>
	<g>
		<g>
			<path class="st2" d="M195.7,579.4c-48,0-96.5-37.9-108.2-84.5l-39.4-318c-3-11.9,4.3-24,16.2-27c1.8-0.4,3.6-0.6,5.4-0.6
				c10.3,0,19.2,7,21.7,16.9l39.4,318c6.8,27,37.1,50.7,64.9,50.7h251.8c27.8,0,58.2-23.7,64.9-50.7l39.5-318.1
				c2.4-9.9,11.3-16.9,21.6-16.9c1.8,0,3.5,0.2,5.3,0.6c12.1,3,19.3,15.2,16.4,27.1l-39.4,318c-11.6,46.6-60.1,84.5-108.2,84.5
				H195.7z"/>
			<path class="st2" d="M447.5,566.7H195.7c-42.5,0-85.5-33.6-95.8-74.8L60.4,173.8c-1.3-5.1,1.8-10.3,7-11.6
				c5.1-1.2,10.3,1.8,11.6,7l39.4,318c8.2,32.7,43.5,60.3,77.2,60.3h251.8c33.7,0,69.1-27.6,77.2-60.3l39.5-318
				c1.3-5.1,6.4-8.2,11.6-7c5.1,1.3,8.3,6.5,7,11.6l-39.4,318.1C533,533.1,490,566.7,447.5,566.7z"/>
		</g>
	</g>
	
		<ellipse transform="matrix(0.535 -0.8448 0.8448 0.535 -210.2573 680.594)" class="st3" cx="513.2" cy="531.3" rx="18.9" ry="13.5"/>
	<path class="st4" d="M69,165.8c0-45.6,110.6-86.5,250.7-86.5s253.7,40.9,253.7,86.5"/>
	<path class="st5" d="M573.5,161.8c0,50.9-113.6,82.5-253.7,82.5S69.4,208.7,69.4,163.1"/>
</g>
</svg>
